:SAMPLES-PER-SECOND 30
:FULLY-SPECIFIED
:DEGREES
222
root  23.0328 38.1974 1.66156 -144.998 87.2596 -137.255
RightUpLeg  -0.428519 -11.7064 2.41702
RightLeg  26.2532 1.13794 0.477374
RightFoot  -16.0307 -0.280683 -4.21436
RightToes  -5.8209e-011 0 -3.6325e-017
Spine  3.56306 -1.33411 13.9447
Spine1  13.1476 0.560056 -1.92949
HEad  -7.56992 1.75067 -6.36458
LeftShoulder1  -0.285905 4.32475 -28.6687
LeftArm  -13.6395 7.10643 -35.04
LeftForeArm  89.1132 -78.1925 -110.818
LeftHand  -0.0519862 1.15363 1.27352
RightShoulder  -0.341628 -4.53946 25.9055
RightArm  -15.3005 -14.2293 35.4794
RightForeArm  114.94 67.875 149.518
RightHand  -0.237303 -0.878497 -6.03819
LeftUpLeg  -18.389 1.06194 5.09075
LeftLeg  57.962 -3.50536 -5.52955
LeftFoot  -3.2605 0.312373 -4.14336
LeftToes  -8.31281e-010 4.41007e-011 3.74621e-011
223
root  24.265 38.2886 1.70348 -129.657 88.2857 -122.055
RightUpLeg  2.42457 -10.3682 1.9439
RightLeg  24.4386 0.971062 0.502655
RightFoot  -16.978 -0.316163 -4.08145
RightToes  -5.8209e-011 0 -3.6325e-017
Spine  3.5487 -0.803053 14.2953
Spine1  12.4282 1.24817 -3.2558
HEad  -8.67416 1.53689 -6.27327
LeftShoulder1  -0.290235 4.33932 -28.5572
LeftArm  -13.5896 6.93985 -34.3077
LeftForeArm  89.2459 -78.1182 -111.475
LeftHand  -0.0600011 1.30511 1.52878
RightShoulder  -0.348868 -4.56186 25.9051
RightArm  -14.7122 -13.8748 35.7276
RightForeArm  113.858 68.0737 149.108
RightHand  -0.269935 -0.546531 -6.44529
LeftUpLeg  -20.1487 2.50359 4.68614
LeftLeg  50.1752 -3.97839 -4.66928
LeftFoot  -4.33217 0.29791 -4.44898
LeftToes  -8.31281e-010 4.41007e-011 3.74621e-011
224
root  25.4795 38.3048 1.73584 -97.5258 88.604 -90.0273
RightUpLeg  5.3533 -9.55455 1.81228
RightLeg  22.4248 0.901475 0.58567
RightFoot  -17.8862 -0.369671 -4.34888
RightToes  -5.8209e-011 0 -3.6325e-017
Spine  3.33485 -0.378891 14.4087
Spine1  12.0755 1.59808 -3.86345
HEad  -9.62972 1.76344 -6.24117
LeftShoulder1  -0.225384 4.15955 -28.2181
LeftArm  -14.1522 7.14067 -34.3136
LeftForeArm  89.6513 -78.1222 -111.588
LeftHand  -0.0650958 1.36509 1.68963
RightShoulder  -0.346898 -4.54901 26.1153
RightArm  -13.9714 -13.0906 35.7999
RightForeArm  112.85 68.4767 148.377
RightHand  -0.290074 -0.415428 -6.77316
LeftUpLeg  -21.1652 3.65966 4.72376
LeftLeg  40.8849 -4.45784 -3.75627
LeftFoot  -4.53435 0.3525 -5.46007
LeftToes  -8.31281e-010 4.41007e-011 3.74621e-011
225
root  26.7172 38.2562 1.75013 -76.2769 88.4457 -68.7934
RightUpLeg  8.52036 -9.4444 1.3699
RightLeg  20.3498 1.41195 0.930265
RightFoot  -18.9526 -0.413881 -4.29923
RightToes  -5.8209e-011 0 -3.6325e-017
Spine  2.98941 -0.217588 14.4777
Spine1  12.1545 1.7387 -4.62988
HEad  -10.7305 2.37247 -6.08548
LeftShoulder1  -0.256489 4.25362 -28.0308
LeftArm  -14.44 7.09214 -33.9862
LeftForeArm  89.6987 -78.0854 -111.898
LeftHand  -0.0753816 0.952925 1.86146
RightShoulder  -0.324822 -4.48337 26.0087
RightArm  -13.584 -12.0259 36.5276
RightForeArm  112.192 69.0476 147.38
RightHand  -0.267379 -0.134557 -5.92459
LeftUpLeg  -21.2765 4.52009 4.62156
LeftLeg  30.363 -4.47531 -2.5018
LeftFoot  -4.02579 0.393256 -5.77323
LeftToes  -8.31281e-010 4.41007e-011 3.74621e-011
226
root  27.9336 38.1474 1.77007 -55.3732 87.8969 -47.9111
RightUpLeg  11.5264 -8.78973 1.33604
RightLeg  18.3986 1.68767 0.93032
RightFoot  -20.0805 -0.43668 -3.93579
RightToes  -5.8209e-011 0 -3.6325e-017
Spine  2.84262 0.135378 13.9799
Spine1  12.247 1.82562 -4.38032
HEad  -11.9745 2.46542 -6.31917
LeftShoulder1  -0.239748 4.20046 -28.2393
LeftArm  -14.9067 7.14278 -33.9324
LeftForeArm  89.1808 -78.1335 -111.328
LeftHand  -0.0826886 0.793937 2.00556
RightShoulder  -0.275901 -4.34824 25.4133
RightArm  -13.2938 -11.0571 37.2422
RightForeArm  110.759 69.6092 146.245
RightHand  -0.29686 -0.234414 -6.70064
LeftUpLeg  -20.7269 4.88462 4.85154
LeftLeg  19.1058 -3.38945 -1.01242
LeftFoot  -3.79598 0.425166 -6.10415
LeftToes  -8.31281e-010 4.41007e-011 3.74621e-011
227
root  29.2164 37.9838 1.78908 -48.5607 87.4373 -41.1688
RightUpLeg  14.311 -8.39517 1.24212
RightLeg  17.0041 1.77222 0.774415
RightFoot  -21.167 -0.458028 -3.65775
RightToes  -5.8209e-011 0 -3.6325e-017
Spine  2.35861 0.264093 13.124
Spine1  12.3951 1.71474 -4.20575
HEad  -12.9169 3.10742 -5.99349
LeftShoulder1  -0.235888 4.19409 -28.0159
LeftArm  -15.3752 7.84953 -33.9524
LeftForeArm  89.5856 -78.0892 -111.827
LeftHand  -0.0801126 1.04641 2.01662
RightShoulder  -0.276907 -4.34797 25.5314
RightArm  -12.59 -9.70821 37.4778
RightForeArm  109.268 70.4179 144.569
RightHand  -0.317105 -0.143837 -7.04538
LeftUpLeg  -19.6657 4.9801 5.05663
LeftLeg  7.79846 -1.27545 0.102206
LeftFoot  -3.15443 0.475503 -6.36495
LeftToes  -8.31281e-010 4.41007e-011 3.74621e-011
228
root  30.5577 37.7189 1.75599 -42.9409 86.4649 -35.9544
RightUpLeg  16.5081 -7.85979 1.34075
RightLeg  16.2618 2.17364 0.677252
RightFoot  -22.4227 -0.476313 -3.34559
RightToes  -5.8209e-011 0 -3.6325e-017
Spine  1.51463 0.510675 12.9453
Spine1  12.844 1.86507 -4.40994
HEad  -13.6585 3.44137 -5.75892
LeftShoulder1  -0.285798 4.3451 -27.789
LeftArm  -15.5839 8.36938 -33.6965
LeftForeArm  90.5726 -77.9754 -113.056
LeftHand  -0.0833801 1.41294 2.25758
RightShoulder  -0.255253 -4.28219 25.4433
RightArm  -12.2624 -8.88048 38.1929
RightForeArm  108.322 70.9825 143.316
RightHand  -0.331879 0.445243 -6.67542
LeftUpLeg  -19.1693 5.62869 5.59098
LeftLeg  -1.119 0.404638 0.166473
LeftFoot  -2.95575 0.58352 -7.72595
LeftToes  -8.31281e-010 4.41007e-011 3.74621e-011
229
root  32.0103 37.3563 1.65811 -37.2868 85.8591 -30.1602
RightUpLeg  19.0818 -7.80873 0.516221
RightLeg  16.5635 3.28252 0.823562
RightFoot  -24.0984 -0.424632 -2.35522
RightToes  -5.8209e-011 0 -3.6325e-017
Spine  1.17759 0.685684 12.2557
Spine1  13.2044 1.9221 -4.07369
HEad  -14.2142 3.44346 -5.23787
LeftShoulder1  -0.261652 4.27027 -27.9282
LeftArm  -15.7459 8.61638 -33.3137
LeftForeArm  91.1576 -77.8993 -113.822
LeftHand  -0.100441 1.73168 2.92918
RightShoulder  -0.258149 -4.28644 25.6153
RightArm  -12.0413 -8.4838 38.3116
RightForeArm  108.011 71.346 142.5
RightHand  -0.298916 0.424062 -6.05233
LeftUpLeg  -18.8816 5.6687 5.59314
LeftLeg  -4.88691 1.85183 -0.0506509
LeftFoot  -3.58951 0.615857 -8.70513
LeftToes  -8.31281e-010 4.41007e-011 3.74621e-011
